<svg xmlns="http://www.w3.org/2000/svg" viewBox="0 0 64 64">
  <circle cx="32" cy="32" r="30" fill="#2E604A"/>
  <!-- Ferry mini icon -->
  <path d="M12 40 L52 40 C55 40 50 48 32 48 C14 48 9 40 12 40 Z" fill="#F4A261" stroke="#FFF" stroke-width="2"/>
  <rect x="20" y="26" width="24" height="14" rx="2" fill="#FFF8E7" stroke="#FFF" stroke-width="1.5"/>
  <rect x="23" y="29" width="5" height="5" rx="1" fill="#2E604A"/>
  <rect x="30" y="29" width="5" height="5" rx="1" fill="#2E604A"/>
  <rect x="37" y="29" width="5" height="5" rx="1" fill="#2E604A"/>
  <line x1="18" y1="26" x2="46" y2="26" stroke="#D85A38" stroke-width="3"/>
  <line x1="32" y1="18" x2="32" y2="26" stroke="#FFF" stroke-width="2"/>
  <polygon points="32,18 40,21 32,24" fill="#E76F51"/>
  <!-- Wave -->
  <path d="M6 46 Q19 41 32 46 T58 46" fill="none" stroke="#A8DADC" stroke-width="3" stroke-linecap="round"/>
</svg>
